# Rhino

mtllib Cubuk.mtl
usemtl Basic Material 002
v -1.499115347862244 7.166666507720947 -1.7559460982285e-15
v -1.499115347862244 7.5 -0.3333333432674408
v -1.499115347862244 7.931509971618652 -0.3333333432674408
v -1.499115347862244 8.850566864013672 -0.3333333432674408
v -1.499115347862244 9.772955894470215 -0.3333333432674408
v -1.499115347862244 10.72513008117676 -0.3333333432674408
v -1.499115347862244 11.16666698455811 -0.3333333432674408
v -1.499115347862244 11.5 -1.776356839400251e-15
v -1.499115347862244 7.166666507720947 -1.7559460982285e-15
v -1.269107580184937 7.5 -0.2412624806165695
v -1.269107580184937 7.931509971618652 -0.2412624806165695
v -1.269107580184937 8.850566864013672 -0.2412624806165695
v -1.269107580184937 9.772955894470215 -0.2412624806165695
v -1.269107580184937 10.72513008117676 -0.2412624806165695
v -1.269107580184937 11.16666698455811 -0.2412624806165695
v -1.499115347862244 11.5 -1.776356839400251e-15
v -1.499115347862244 7.166666507720947 -1.7559460982285e-15
v -1.165781974792481 7.5 -1.796767580572001e-15
v -1.165781974792481 7.931509971618652 -1.796767580572001e-15
v -1.165781974792481 8.850566864013672 -1.796767580572001e-15
v -1.165781974792481 9.772955894470215 -1.796767580572001e-15
v -1.165781974792481 10.72513008117676 -1.796767580572001e-15
v -1.165781974792481 11.16666698455811 -1.796767580572001e-15
v -1.499115347862244 11.5 -1.776356839400251e-15
v -1.499115347862244 7.166666507720947 -1.7559460982285e-15
v -1.257852792739868 7.5 0.2300076633691788
v -1.257852792739868 7.931509971618652 0.2300076633691788
v -1.257852792739868 8.850566864013672 0.2300076633691788
v -1.257852792739868 9.772955894470215 0.2300076633691788
v -1.257852792739868 10.72513008117676 0.2300076633691788
v -1.257852792739868 11.16666698455811 0.2300076633691788
v -1.499115347862244 11.5 -1.776356839400251e-15
v -1.499115347862244 7.166666507720947 -1.7559460982285e-15
v -1.499115347862244 7.5 0.3333333432674408
v -1.499115347862244 7.931509971618652 0.3333333432674408
v -1.499115347862244 8.850566864013672 0.3333333432674408
v -1.499115347862244 9.772955894470215 0.3333333432674408
v -1.499115347862244 10.72513008117676 0.3333333432674408
v -1.499115347862244 11.16666698455811 0.3333333432674408
v -1.499115347862244 11.5 -1.776356839400251e-15
v -1.499115347862244 7.166666507720947 -1.7559460982285e-15
v -1.729122996330261 7.5 0.2412624806165695
v -1.729122996330261 7.931509971618652 0.2412624806165695
v -1.729122996330261 8.850566864013672 0.2412624806165695
v -1.729122996330261 9.772955894470215 0.2412624806165695
v -1.729122996330261 10.72513008117676 0.2412624806165695
v -1.729122996330261 11.16666698455811 0.2412624806165695
v -1.499115347862244 11.5 -1.776356839400251e-15
v -1.499115347862244 7.166666507720947 -1.7559460982285e-15
v -1.832448601722717 7.5 -1.715124510005882e-15
v -1.832448601722717 7.931509971618652 -1.715124510005882e-15
v -1.832448601722717 8.850566864013672 -1.715124510005882e-15
v -1.832448601722717 9.772955894470215 -1.715124510005882e-15
v -1.832448601722717 10.72513008117676 -1.715124510005882e-15
v -1.832448601722717 11.16666698455811 -1.715124510005882e-15
v -1.499115347862244 11.5 -1.776356839400251e-15
v -1.499115347862244 7.166666507720947 -1.7559460982285e-15
v -1.74037778377533 7.5 -0.2300076633691788
v -1.74037778377533 7.931509971618652 -0.2300076633691788
v -1.74037778377533 8.850566864013672 -0.2300076633691788
v -1.74037778377533 9.772955894470215 -0.2300076633691788
v -1.74037778377533 10.72513008117676 -0.2300076633691788
v -1.74037778377533 11.16666698455811 -0.2300076633691788
v -1.499115347862244 11.5 -1.776356839400251e-15
v -1.499115347862244 7.166666507720947 -1.7559460982285e-15
v -1.499115347862244 7.5 -0.3333333432674408
v -1.499115347862244 7.931509971618652 -0.3333333432674408
v -1.499115347862244 8.850566864013672 -0.3333333432674408
v -1.499115347862244 9.772955894470215 -0.3333333432674408
v -1.499115347862244 10.72513008117676 -0.3333333432674408
v -1.499115347862244 11.16666698455811 -0.3333333432674408
v -1.499115347862244 11.5 -1.776356839400251e-15
v -1.336475372314453 7.264297962188721 -0.1705983430147171
v -1.375239849090576 7.5 -0.3094607591629028
v -1.499115347862244 7.264297962188721 -0.2357022613286972
v -1.499115347862244 7.166666507720947 -1.7559460982285e-15
v -1.411522030830383 7.264297962188721 -0.2188218086957932
v -1.336475372314453 11.40236854553223 -0.1705983430147171
v -1.499115347862244 11.5 -1.776356839400251e-15
v -1.499115347862244 11.40236854553223 -0.2357022613286972
v -1.375239849090576 11.16666698455811 -0.3094607591629028
v -1.411522030830383 11.40236854553223 -0.2188218086957932
v -1.263413071632385 7.264297962188721 -1.790789433788517e-15
v -1.192700266838074 7.5 -0.1312285959720612
v -1.499115347862244 7.166666507720947 -1.7559460982285e-15
v -1.282447218894959 7.264297962188721 -0.09279263019561768
v -1.263413071632385 11.40236854553223 -2.678967853488642e-15
v -1.499115347862244 11.5 -1.776356839400251e-15
v -1.192700266838074 11.16666698455811 -0.1312285959720612
v -1.282447218894959 11.40236854553223 -0.09279263019561768
v -1.328516960144043 7.264297962188721 0.1626399755477905
v -1.189654588699341 7.5 0.1238755136728287
v -1.499115347862244 7.166666507720947 -1.7559460982285e-15
v -1.280293464660645 7.264297962188721 0.087593212723732
v -1.328516960144043 11.40236854553223 0.1626399755477905
v -1.499115347862244 11.5 -1.776356839400251e-15
v -1.189654588699341 11.16666698455811 0.1238755136728287
v -1.280293464660645 11.40236854553223 0.087593212723732
v -1.499115347862244 7.264297962188721 0.2357022613286972
v -1.367886662483215 7.5 0.3064150214195252
v -1.499115347862244 7.166666507720947 -1.7559460982285e-15
v -1.406322717666626 7.264297962188721 0.2166681438684464
v -1.499115347862244 11.40236854553223 0.2357022613286972
v -1.499115347862244 11.5 -1.776356839400251e-15
v -1.367886662483215 11.16666698455811 0.3064150214195252
v -1.406322717666626 11.40236854553223 0.2166681438684464
v -1.661755323410034 7.264297962188721 0.1705983430147171
v -1.622990846633911 7.5 0.3094607591629028
v -1.499115347862244 7.166666507720947 -1.7559460982285e-15
v -1.586708545684815 7.264297962188721 0.2188218086957932
v -1.661755323410034 11.40236854553223 0.1705983430147171
v -1.499115347862244 11.5 -1.776356839400251e-15
v -1.622990846633911 11.16666698455811 0.3094607591629028
v -1.586708545684815 11.40236854553223 0.2188218086957932
v -1.734817504882813 7.264297962188721 -1.733059056235452e-15
v -1.805530309677124 7.5 0.1312285959720612
v -1.499115347862244 7.166666507720947 -1.7559460982285e-15
v -1.715783476829529 7.264297962188721 0.09279263019561768
v -1.734817504882813 11.40236854553223 -8.448806365353272e-16
v -1.499115347862244 11.5 -1.776356839400251e-15
v -1.805530309677124 11.16666698455811 0.1312285959720612
v -1.715783476829529 11.40236854553223 0.09279263019561768
v -1.669713616371155 7.264297962188721 -0.1626399755477905
v -1.808576107025147 7.5 -0.1238755136728287
v -1.499115347862244 7.166666507720947 -1.7559460982285e-15
v -1.717937111854553 7.264297962188721 -0.087593212723732
v -1.669713616371155 11.40236854553223 -0.1626399755477905
v -1.499115347862244 11.5 -1.776356839400251e-15
v -1.808576107025147 11.16666698455811 -0.1238755136728287
v -1.717937111854553 11.40236854553223 -0.087593212723732
v -1.499115347862244 7.264297962188721 -0.2357022613286972
v -1.630343914031982 7.5 -0.3064150214195252
v -1.499115347862244 7.166666507720947 -1.7559460982285e-15
v -1.591907978057861 7.264297962188721 -0.2166681438684464
v -1.499115347862244 11.40236854553223 -0.2357022613286972
v -1.499115347862244 11.5 -1.776356839400251e-15
v -1.630343914031982 11.16666698455811 -0.3064150214195252
v -1.591907978057861 11.40236854553223 -0.2166681438684464
vt 0 0
vt 0 0.1409848928451538
vt 0 0.208748996257782
vt 0 0.3635742664337158
vt 0 0.5376721620559692
vt 0 0.7467129230499268
vt 0 0.8590151071548462
vt 0 1
vt 0.1211998015642166 0
vt 0.1211998015642166 0.1409848928451538
vt 0.1211998015642166 0.208748996257782
vt 0.1211998015642166 0.3635742664337158
vt 0.1211998015642166 0.5376721620559692
vt 0.1211998015642166 0.7467129230499268
vt 0.1211998015642166 0.8590151071548462
vt 0.1211998015642166 1
vt 0.25 0
vt 0.25 0.1409848928451538
vt 0.25 0.208748996257782
vt 0.25 0.3635742664337158
vt 0.25 0.5376721620559692
vt 0.25 0.7467129230499268
vt 0.25 0.8590151071548462
vt 0.25 1
vt 0.3711998164653778 0
vt 0.3711998164653778 0.1409848928451538
vt 0.3711998164653778 0.208748996257782
vt 0.3711998164653778 0.3635742664337158
vt 0.3711998164653778 0.5376721620559692
vt 0.3711998164653778 0.7467129230499268
vt 0.3711998164653778 0.8590151071548462
vt 0.3711998164653778 1
vt 0.5 0
vt 0.5 0.1409848928451538
vt 0.5 0.208748996257782
vt 0.5 0.3635742664337158
vt 0.5 0.5376721620559692
vt 0.5 0.7467129230499268
vt 0.5 0.8590151071548462
vt 0.5 1
vt 0.6211997866630554 0
vt 0.6211997866630554 0.1409848928451538
vt 0.6211997866630554 0.208748996257782
vt 0.6211997866630554 0.3635742664337158
vt 0.6211997866630554 0.5376721620559692
vt 0.6211997866630554 0.7467129230499268
vt 0.6211997866630554 0.8590151071548462
vt 0.6211997866630554 1
vt 0.75 0
vt 0.75 0.1409848928451538
vt 0.75 0.208748996257782
vt 0.75 0.3635742664337158
vt 0.75 0.5376721620559692
vt 0.75 0.7467129230499268
vt 0.75 0.8590151071548462
vt 0.75 1
vt 0.8711997866630554 0
vt 0.8711997866630554 0.1409848928451538
vt 0.8711997866630554 0.208748996257782
vt 0.8711997866630554 0.3635742664337158
vt 0.8711997866630554 0.5376721620559692
vt 0.8711997866630554 0.7467129230499268
vt 0.8711997866630554 0.8590151071548462
vt 0.8711997866630554 1
vt 1 0
vt 1 0.1409848928451538
vt 1 0.208748996257782
vt 1 0.3635742664337158
vt 1 0.5376721620559692
vt 1 0.7467129230499268
vt 1 0.8590151071548462
vt 1 1
vt 0.1211998015642166 0.0704924464225769
vt 0.06059990078210831 0.1409848928451538
vt 0 0.0704924464225769
vt 0.06059990078210831 0
vt 0.06059990078210831 0.0704924464225769
vt 0.1211998015642166 0.9295075535774231
vt 0.06059990078210831 1
vt 0 0.9295075535774231
vt 0.06059990078210831 0.8590151071548462
vt 0.06059990078210831 0.9295075535774231
vt 0.25 0.0704924464225769
vt 0.1855999082326889 0.1409848928451538
vt 0.1855999082326889 0
vt 0.1855999082326889 0.0704924464225769
vt 0.25 0.9295075535774231
vt 0.1855999082326889 1
vt 0.1855999082326889 0.8590151071548462
vt 0.1855999082326889 0.9295075535774231
vt 0.3711998164653778 0.0704924464225769
vt 0.3105998933315277 0.1409848928451538
vt 0.3105998933315277 0
vt 0.3105998933315277 0.0704924464225769
vt 0.3711998164653778 0.9295075535774231
vt 0.3105998933315277 1
vt 0.3105998933315277 0.8590151071548462
vt 0.3105998933315277 0.9295075535774231
vt 0.5 0.0704924464225769
vt 0.4355998933315277 0.1409848928451538
vt 0.4355998933315277 0
vt 0.4355998933315277 0.0704924464225769
vt 0.5 0.9295075535774231
vt 0.4355998933315277 1
vt 0.4355998933315277 0.8590151071548462
vt 0.4355998933315277 0.9295075535774231
vt 0.6211997866630554 0.0704924464225769
vt 0.5605999231338501 0.1409848928451538
vt 0.5605999231338501 0
vt 0.5605999231338501 0.0704924464225769
vt 0.6211997866630554 0.9295075535774231
vt 0.5605999231338501 1
vt 0.5605999231338501 0.8590151071548462
vt 0.5605999231338501 0.9295075535774231
vt 0.75 0.0704924464225769
vt 0.6855999231338501 0.1409848928451538
vt 0.6855999231338501 0
vt 0.6855999231338501 0.0704924464225769
vt 0.75 0.9295075535774231
vt 0.6855999231338501 1
vt 0.6855999231338501 0.8590151071548462
vt 0.6855999231338501 0.9295075535774231
vt 0.8711997866630554 0.0704924464225769
vt 0.8105999231338501 0.1409848928451538
vt 0.8105999231338501 0
vt 0.8105999231338501 0.0704924464225769
vt 0.8711997866630554 0.9295075535774231
vt 0.8105999231338501 1
vt 0.8105999231338501 0.8590151071548462
vt 0.8105999231338501 0.9295075535774231
vt 1 0.0704924464225769
vt 0.9355999231338501 0.1409848928451538
vt 0.9355999231338501 0
vt 0.9355999231338501 0.0704924464225769
vt 1 0.9295075535774231
vt 0.9355999231338501 1
vt 0.9355999231338501 0.8590151071548462
vt 0.9355999231338501 0.9295075535774231
vn 1.874699696526493e-33 -1 1.224646852585168e-16
vn -0 -0 -1
vn -0 -0 -1
vn -0 -0 -1
vn -0 -0 -1
vn -0 -0 -1
vn 0 2.158994444201724e-15 -1
vn -4.576837848203436e-30 1 -6.604084014472469e-16
vn -8.450344788943722e-17 -1 8.86383980401367e-17
vn 0.6900230050086975 0 -0.7237874269485474
vn 0.6900230050086975 0 -0.7237874269485474
vn 0.6900230050086975 0 -0.7237874269485474
vn 0.6900230050086975 0 -0.7237874269485474
vn 0.6900230050086975 0 -0.7237874269485474
vn 0.6900230050086975 2.158994444201724e-15 -0.7237874269485474
vn 4.556970022987948e-16 1 -4.779953034539418e-16
vn -1.224646852585168e-16 -1 9.373498482632464e-33
vn 1 0 -6.123234262925839e-17
vn 1 0 -6.123234262925839e-17
vn 1 0 -6.123234262925839e-17
vn 1 0 -6.123234262925839e-17
vn 1 0 -6.123234262925839e-17
vn 1 2.158994444201724e-15 -6.123234262925839e-17
vn 6.604084014472469e-16 1 -4.617276358504492e-30
vn -8.86383980401367e-17 -1 -8.450344788943722e-17
vn 0.7237874269485474 0 0.6900230050086975
vn 0.7237874269485474 0 0.6900230050086975
vn 0.7237874269485474 0 0.6900230050086975
vn 0.7237874269485474 0 0.6900230050086975
vn 0.7237874269485474 0 0.6900230050086975
vn 0.7237874269485474 2.158994444201724e-15 0.6900230050086975
vn 4.779953034539418e-16 1 4.556970022987948e-16
vn -1.68722980034224e-32 -1 -1.224646852585168e-16
vn 1.224646852585168e-16 0 1
vn 1.224646852585168e-16 0 1
vn 1.224646852585168e-16 0 1
vn 1.224646852585168e-16 0 1
vn 1.224646852585168e-16 0 1
vn 1.224646852585168e-16 2.158994444201724e-15 1
vn 4.657714492647355e-30 1 6.604084014472469e-16
vn 8.450344788943722e-17 -1 -8.86383980401367e-17
vn -0.6900230050086975 0 0.7237874269485474
vn -0.6900230050086975 0 0.7237874269485474
vn -0.6900230050086975 0 0.7237874269485474
vn -0.6900230050086975 0 0.7237874269485474
vn -0.6900230050086975 0 0.7237874269485474
vn -0.6900230050086975 2.158994444201724e-15 0.7237874269485474
vn -4.556970022987948e-16 1 4.779953034539418e-16
vn 1.224646852585168e-16 -1 -2.437109678952838e-32
vn -1 0 1.836970146528854e-16
vn -1 0 1.836970146528854e-16
vn -1 0 1.836970146528854e-16
vn -1 0 1.836970146528854e-16
vn -1 0 1.836970146528854e-16
vn -1 2.158994444201724e-15 1.836970146528854e-16
vn -6.604084014472469e-16 1 4.698153002948411e-30
vn 8.86383980401367e-17 -1 8.450344788943722e-17
vn -0.7237874269485474 0 -0.6900230050086975
vn -0.7237874269485474 0 -0.6900230050086975
vn -0.7237874269485474 0 -0.6900230050086975
vn -0.7237874269485474 0 -0.6900230050086975
vn -0.7237874269485474 0 -0.6900230050086975
vn -0.7237874269485474 2.158994444201724e-15 -0.6900230050086975
vn -4.779953034539418e-16 1 -4.556970022987948e-16
vn 2.812049618258136e-32 -1 1.224646852585168e-16
vn -2.449293705170336e-16 0 -1
vn -2.449293705170336e-16 0 -1
vn -2.449293705170336e-16 0 -1
vn -2.449293705170336e-16 0 -1
vn -2.449293705170336e-16 0 -1
vn -2.449293705170336e-16 2.158994444201724e-15 -1
vn -4.738591137091274e-30 1 -6.604084014472469e-16
vn 0.487919956445694 -0.7071067690849304 -0.5117949843406677
vn 0.3716265261173248 0 -0.9283823370933533
vn 0 -0.7071067690849304 -0.7071067690849304
vn -4.551112326936541e-17 -1 1.136940429015027e-16
vn 0.2627796530723572 -0.7071067690849304 -0.6564654111862183
vn 0.487919956445694 0.7071067690849304 -0.5117949843406677
vn 2.454252818378714e-16 1 -6.131115110406653e-16
vn -2.664535259100376e-15 0.7071067690849304 -0.7071067690849304
vn 0.3716265261173248 2.158994444201724e-15 -0.9283823370933533
vn 0.2627796530723572 0.7071067690849304 -0.6564654111862183
vn 0.7071067690849304 -0.7071067690849304 -4.329780301713277e-17
vn 0.9192450642585754 0 -0.3936857879161835
vn -1.125750594386206e-16 -1 4.821260250573499e-17
vn 0.6500044465065002 -0.7071067690849304 -0.278377890586853
vn 0.7071067690849304 0.7071067690849304 -2.707833042265174e-15
vn 6.070771953848664e-16 1 -2.599934014976981e-16
vn 0.9192450642585754 2.158994444201724e-15 -0.3936857879161835
vn 0.6500044465065002 0.7071067690849304 -0.278377890586853
vn 0.5117949843406677 -0.7071067690849304 0.487919956445694
vn 0.9283823370933533 0 0.3716265261173248
vn -1.136940429015027e-16 -1 -4.551112326936541e-17
vn 0.6564654111862183 -0.7071067690849304 0.2627796530723572
vn 0.5117949843406677 0.7071067690849304 0.487919956445694
vn 6.131115110406653e-16 1 2.454252818378714e-16
vn 0.9283823370933533 2.158994444201724e-15 0.3716265261173248
vn 0.6564654111862183 0.7071067690849304 0.2627796530723572
vn 8.659560603426554e-17 -0.7071067690849304 0.7071067690849304
vn 0.3936857879161835 0 0.9192450642585754
vn -4.821260250573499e-17 -1 -1.125750594386206e-16
vn 0.278377890586853 -0.7071067690849304 0.6500044465065002
vn 2.751130825429972e-15 0.7071067690849304 0.7071067690849304
vn 2.599934014976981e-16 1 6.070771953848664e-16
vn 0.3936857879161835 2.158994444201724e-15 0.9192450642585754
vn 0.278377890586853 0.7071067690849304 0.6500044465065002
vn -0.487919956445694 -0.7071067690849304 0.5117949843406677
vn -0.3716265261173248 0 0.9283823370933533
vn 4.551112326936541e-17 -1 -1.136940429015027e-16
vn -0.2627796530723572 -0.7071067690849304 0.6564654111862183
vn -0.487919956445694 0.7071067690849304 0.5117949843406677
vn -2.454252818378714e-16 1 6.131115110406653e-16
vn -0.3716265261173248 2.158994444201724e-15 0.9283823370933533
vn -0.2627796530723572 0.7071067690849304 0.6564654111862183
vn -0.7071067690849304 -0.7071067690849304 1.298934024339534e-16
vn -0.9192450642585754 0 0.3936857879161835
vn 1.125750594386206e-16 -1 -4.821260250573499e-17
vn -0.6500044465065002 -0.7071067690849304 0.278377890586853
vn -0.7071067690849304 0.7071067690849304 2.79442860859477e-15
vn -6.070771953848664e-16 1 2.599934014976981e-16
vn -0.9192450642585754 2.158994444201724e-15 0.3936857879161835
vn -0.6500044465065002 0.7071067690849304 0.278377890586853
vn -0.5117949843406677 -0.7071067690849304 -0.487919956445694
vn -0.9283823370933533 0 -0.3716265261173248
vn 1.136940429015027e-16 -1 4.551112326936541e-17
vn -0.6564654111862183 -0.7071067690849304 -0.2627796530723572
vn -0.5117949843406677 0.7071067690849304 -0.487919956445694
vn -6.131115110406653e-16 1 -2.454252818378714e-16
vn -0.9283823370933533 2.158994444201724e-15 -0.3716265261173248
vn -0.6564654111862183 0.7071067690849304 -0.2627796530723572
vn -1.731912120685311e-16 -0.7071067690849304 -0.7071067690849304
vn -0.3936857879161835 0 -0.9192450642585754
vn 4.821260250573499e-17 -1 1.125750594386206e-16
vn -0.278377890586853 -0.7071067690849304 -0.6500044465065002
vn -2.837726391759568e-15 0.7071067690849304 -0.7071067690849304
vn -2.599934014976981e-16 1 -6.070771953848664e-16
vn -0.3936857879161835 2.158994444201724e-15 -0.9192450642585754
vn -0.278377890586853 0.7071067690849304 -0.6500044465065002
f 10/10/10 73/73/73 77/77/77 74/74/74
f 74/74/74 77/77/77 75/75/75 2/2/2
f 77/77/77 1/1/1 75/75/75
f 73/73/73 76/76/76 77/77/77
f 74/74/74 11/11/11 10/10/10
f 3/3/3 74/74/74 2/2/2
f 11/11/11 74/74/74 3/3/3
f 12/12/12 11/11/11 3/3/3 4/4/4
f 13/13/13 12/12/12 4/4/4 5/5/5
f 14/14/14 13/13/13 5/5/5 6/6/6
f 81/81/81 6/6/6 7/7/7
f 14/14/14 81/81/81 15/15/15
f 6/6/6 81/81/81 14/14/14
f 16/16/16 78/78/78 82/82/82
f 79/79/79 82/82/82 80/80/80
f 82/82/82 81/81/81 7/7/7 80/80/80
f 78/78/78 15/15/15 81/81/81 82/82/82
f 18/18/18 83/83/83 86/86/86 84/84/84
f 84/84/84 86/86/86 73/73/73 10/10/10
f 86/86/86 9/9/9 73/73/73
f 83/83/83 85/85/85 86/86/86
f 84/84/84 19/19/19 18/18/18
f 11/11/11 84/84/84 10/10/10
f 19/19/19 84/84/84 11/11/11
f 20/20/20 19/19/19 11/11/11 12/12/12
f 21/21/21 20/20/20 12/12/12 13/13/13
f 22/22/22 21/21/21 13/13/13 14/14/14
f 89/89/89 14/14/14 15/15/15
f 22/22/22 89/89/89 23/23/23
f 14/14/14 89/89/89 22/22/22
f 24/24/24 87/87/87 90/90/90
f 88/88/88 90/90/90 78/78/78
f 90/90/90 89/89/89 15/15/15 78/78/78
f 87/87/87 23/23/23 89/89/89 90/90/90
f 26/26/26 91/91/91 94/94/94 92/92/92
f 92/92/92 94/94/94 83/83/83 18/18/18
f 94/94/94 17/17/17 83/83/83
f 91/91/91 93/93/93 94/94/94
f 92/92/92 27/27/27 26/26/26
f 19/19/19 92/92/92 18/18/18
f 27/27/27 92/92/92 19/19/19
f 28/28/28 27/27/27 19/19/19 20/20/20
f 29/29/29 28/28/28 20/20/20 21/21/21
f 30/30/30 29/29/29 21/21/21 22/22/22
f 97/97/97 22/22/22 23/23/23
f 30/30/30 97/97/97 31/31/31
f 22/22/22 97/97/97 30/30/30
f 32/32/32 95/95/95 98/98/98
f 96/96/96 98/98/98 87/87/87
f 98/98/98 97/97/97 23/23/23 87/87/87
f 95/95/95 31/31/31 97/97/97 98/98/98
f 34/34/34 99/99/99 102/102/102 100/100/100
f 100/100/100 102/102/102 91/91/91 26/26/26
f 102/102/102 25/25/25 91/91/91
f 99/99/99 101/101/101 102/102/102
f 100/100/100 35/35/35 34/34/34
f 27/27/27 100/100/100 26/26/26
f 35/35/35 100/100/100 27/27/27
f 36/36/36 35/35/35 27/27/27 28/28/28
f 37/37/37 36/36/36 28/28/28 29/29/29
f 38/38/38 37/37/37 29/29/29 30/30/30
f 105/105/105 30/30/30 31/31/31
f 38/38/38 105/105/105 39/39/39
f 30/30/30 105/105/105 38/38/38
f 40/40/40 103/103/103 106/106/106
f 104/104/104 106/106/106 95/95/95
f 106/106/106 105/105/105 31/31/31 95/95/95
f 103/103/103 39/39/39 105/105/105 106/106/106
f 42/42/42 107/107/107 110/110/110 108/108/108
f 108/108/108 110/110/110 99/99/99 34/34/34
f 110/110/110 33/33/33 99/99/99
f 107/107/107 109/109/109 110/110/110
f 108/108/108 43/43/43 42/42/42
f 35/35/35 108/108/108 34/34/34
f 43/43/43 108/108/108 35/35/35
f 44/44/44 43/43/43 35/35/35 36/36/36
f 45/45/45 44/44/44 36/36/36 37/37/37
f 46/46/46 45/45/45 37/37/37 38/38/38
f 113/113/113 38/38/38 39/39/39
f 46/46/46 113/113/113 47/47/47
f 38/38/38 113/113/113 46/46/46
f 48/48/48 111/111/111 114/114/114
f 112/112/112 114/114/114 103/103/103
f 114/114/114 113/113/113 39/39/39 103/103/103
f 111/111/111 47/47/47 113/113/113 114/114/114
f 50/50/50 115/115/115 118/118/118 116/116/116
f 116/116/116 118/118/118 107/107/107 42/42/42
f 118/118/118 41/41/41 107/107/107
f 115/115/115 117/117/117 118/118/118
f 116/116/116 51/51/51 50/50/50
f 43/43/43 116/116/116 42/42/42
f 51/51/51 116/116/116 43/43/43
f 52/52/52 51/51/51 43/43/43 44/44/44
f 53/53/53 52/52/52 44/44/44 45/45/45
f 54/54/54 53/53/53 45/45/45 46/46/46
f 121/121/121 46/46/46 47/47/47
f 54/54/54 121/121/121 55/55/55
f 46/46/46 121/121/121 54/54/54
f 56/56/56 119/119/119 122/122/122
f 120/120/120 122/122/122 111/111/111
f 122/122/122 121/121/121 47/47/47 111/111/111
f 119/119/119 55/55/55 121/121/121 122/122/122
f 58/58/58 123/123/123 126/126/126 124/124/124
f 124/124/124 126/126/126 115/115/115 50/50/50
f 126/126/126 49/49/49 115/115/115
f 123/123/123 125/125/125 126/126/126
f 124/124/124 59/59/59 58/58/58
f 51/51/51 124/124/124 50/50/50
f 59/59/59 124/124/124 51/51/51
f 60/60/60 59/59/59 51/51/51 52/52/52
f 61/61/61 60/60/60 52/52/52 53/53/53
f 62/62/62 61/61/61 53/53/53 54/54/54
f 129/129/129 54/54/54 55/55/55
f 62/62/62 129/129/129 63/63/63
f 54/54/54 129/129/129 62/62/62
f 64/64/64 127/127/127 130/130/130
f 128/128/128 130/130/130 119/119/119
f 130/130/130 129/129/129 55/55/55 119/119/119
f 127/127/127 63/63/63 129/129/129 130/130/130
f 66/66/66 131/131/131 134/134/134 132/132/132
f 132/132/132 134/134/134 123/123/123 58/58/58
f 134/134/134 57/57/57 123/123/123
f 131/131/131 133/133/133 134/134/134
f 132/132/132 67/67/67 66/66/66
f 59/59/59 132/132/132 58/58/58
f 67/67/67 132/132/132 59/59/59
f 68/68/68 67/67/67 59/59/59 60/60/60
f 69/69/69 68/68/68 60/60/60 61/61/61
f 70/70/70 69/69/69 61/61/61 62/62/62
f 137/137/137 62/62/62 63/63/63
f 70/70/70 137/137/137 71/71/71
f 62/62/62 137/137/137 70/70/70
f 72/72/72 135/135/135 138/138/138
f 136/136/136 138/138/138 127/127/127
f 138/138/138 137/137/137 63/63/63 127/127/127
f 135/135/135 71/71/71 137/137/137 138/138/138
